<?xml version="1.0" encoding="UTF-8" standalone="no"?>
<svg width="32px" height="32px" viewBox="0 0 32 32" version="1.1" xmlns="http://www.w3.org/2000/svg" xmlns:xlink="http://www.w3.org/1999/xlink" xmlns:sketch="http://www.bohemiancoding.com/sketch/ns">
    <!-- Generator: Sketch 3.3 (11970) - http://www.bohemiancoding.com/sketch -->
    <title>menu_drafts_icon</title>
    <desc>Created with Sketch.</desc>
    <defs>
        <rect id="path-1" x="0" y="0" width="32" height="32" rx="8"></rect>
        <linearGradient x1="51.2654603%" y1="50%" x2="51.2654603%" y2="0%" id="linearGradient-3">
            <stop stop-color="#FFFFFF" stop-opacity="0" offset="0%"></stop>
            <stop stop-color="#C6DAE3" offset="100%"></stop>
        </linearGradient>
        <linearGradient x1="50%" y1="50%" x2="50%" y2="100%" id="linearGradient-4">
            <stop stop-color="#FFFFFF" stop-opacity="0" offset="0%"></stop>
            <stop stop-color="#C7DAE4" offset="100%"></stop>
        </linearGradient>
        <rect id="path-5" x="0" y="0" width="32" height="32"></rect>
    </defs>
    <g id="Page-1" stroke="none" stroke-width="1" fill="none" fill-rule="evenodd" sketch:type="MSPage">
        <g id="menu_drafts_icon" sketch:type="MSArtboardGroup">
            <mask id="mask-2" sketch:name="Mask" fill="white">
                <use xlink:href="#path-1"></use>
            </mask>
            <use id="Mask" sketch:type="MSShapeGroup" xlink:href="#path-1"></use>
            <g id="icon_square_128" sketch:type="MSLayerGroup" mask="url(#mask-2)">
                <g id="Rectangle-1">
                    <use fill="#FFFFFF" fill-rule="evenodd" sketch:type="MSShapeGroup" xlink:href="#path-5"></use>
                    <use fill="url(#linearGradient-3)" fill-rule="evenodd" xlink:href="#path-5"></use>
                    <use fill="url(#linearGradient-4)" fill-rule="evenodd" xlink:href="#path-5"></use>
                    <use fill="none" xlink:href="#path-5"></use>
                </g>
                <path d="M0,31.9377432 L15.9227674,32 L31.9817654,15.9667896 L32,0.0622568093 L16.1022611,0 L0.0182345973,16.0582389 L0,31.9377432 Z" id="Path-2" fill-opacity="0.6" fill="#FFFFFF" sketch:type="MSShapeGroup"></path>
                <g id="Rectangle-21-+-Rectangle-23-+-Rectangle-22" transform="translate(8.000000, 8.000000)" fill="#3388C8" sketch:type="MSShapeGroup">
                    <path d="M14.9264633,0.505623983 C14.7651451,0.331492664 14.5160765,0.265327802 14.2998804,0.265327802 L4.88343089,0.265327802 C4.43112827,0.265327802 4.06639212,0.6332202 4.06639212,1.08915863 C4.06639212,1.54208007 4.43601746,1.91298945 4.88343089,1.91298945 L13.4742733,1.91298945 L13.4742733,10.5300635 C13.4742733,10.9837472 13.8410458,11.3495971 14.2955962,11.3495971 C14.7471389,11.3495971 15.1169192,10.9788431 15.1169192,10.5300635 L15.1169192,1.08486136 C15.1169192,0.865488156 15.0877814,0.679755301 14.9264633,0.505623983 Z" id="Rectangle-21"></path>
                    <path d="M11.8195051,3.55794372 C11.7343867,3.46606459 11.6029674,3.43115318 11.4888932,3.43115318 L6.52037198,3.43115318 C6.28171779,3.43115318 6.08926741,3.62526893 6.08926741,3.86584153 C6.08926741,4.10482224 6.28429754,4.30052988 6.52037198,4.30052988 L11.0532676,4.30052988 L11.0532676,8.84726642 C11.0532676,9.08664933 11.2467924,9.27968735 11.4866326,9.27968735 C11.7248859,9.27968735 11.9199977,9.0840617 11.9199977,8.84726642 L11.9199977,3.86357411 C11.9199977,3.74782343 11.9046234,3.64982284 11.8195051,3.55794372 Z" id="Rectangle-23"></path>
                    <path d="M1.04485343,14.3409587 C1.21137541,14.5207072 1.4684785,14.5890064 1.69164863,14.5890064 L11.4118546,14.5890064 C11.8787476,14.5890064 12.2552495,14.2092465 12.2552495,13.7386004 C12.2552495,13.2710685 11.8737007,12.8881943 11.4118546,12.8881943 L2.54388826,12.8881943 L2.54388826,3.99315012 C2.54388826,3.52483147 2.16528442,3.14718 1.69607101,3.14718 C1.22996244,3.14718 0.848253767,3.52989378 0.848253767,3.99315012 L0.848253767,13.7430362 C0.848253767,13.969486 0.878331453,14.1612102 1.04485343,14.3409587 L1.04485343,14.3409587 Z" id="Rectangle-22"></path>
                </g>
            </g>
        </g>
    </g>
</svg>